<?xml version="1.0" encoding="UTF-8" standalone="no"?>
<!DOCTYPE svg PUBLIC "-//W3C//DTD SVG 1.1//EN" "http://www.w3.org/Graphics/SVG/1.1/DTD/svg11.dtd">
<svg width="100%" height="100%" viewBox="0 0 243 56" version="1.1" xmlns="http://www.w3.org/2000/svg" xmlns:xlink="http://www.w3.org/1999/xlink" xml:space="preserve" xmlns:serif="http://www.serif.com/" style="fill-rule:evenodd;clip-rule:evenodd;stroke-linejoin:round;stroke-miterlimit:2;">
    <g transform="matrix(1,0,0,1,-163,-461)">
        <g transform="matrix(1,0,0,1,810,0)">
            <path d="M-451,488.25L-596,494.5L-608,496.5L-643,504.5L-646.75,504.75L-647,502.5L-645.5,501L-642,500.5L-606,491.5L-438.5,483L-437,484.5L-437.25,486.75L-451,488.25"/>
        </g>
        <g transform="matrix(1,0,0,1,810,0)">
            <path d="M-445.5,517L-447.5,517L-449,515.5L-448,514.5L-448,513.5L-445.5,511L-443,509.5L-425.5,497L-414,490.5L-412.5,490L-411,488.5L-411.25,487.25L-413,486.5L-423.5,481L-433.5,474L-436,472.625L-444,469.375L-448.5,467L-450,465.5L-450,464.5L-451,463.5L-448.5,461L-446.5,463L-442,465.375L-434,468.625L-431.5,470L-421.5,477L-409,483.375L-406.5,484L-404,486.5L-406,488.5L-406,489.5L-410.5,494L-412,494.5L-423.5,501L-441,513.5L-443.5,515L-445.5,517"/>
        </g>
    </g>
</svg>
